<svg width="390" height="211" xmlns="http://www.w3.org/2000/svg" xmlns:xlink="http://www.w3.org/1999/xlink" xml:space="preserve" overflow="hidden"><g transform="translate(-1283 -643)"><path d="M1359.83 711.071 1343.32 756.937 1376.2 756.937ZM1400.48 698.223 1414.04 698.223 1435.86 778.829 1458.9 698.223 1473.33 698.223 1496.44 778.829 1518.41 698.223 1531.33 698.223 1503.12 794.835 1489.62 794.835 1465.87 713.153 1442.47 794.835 1428.76 794.835ZM1353.08 698.223 1366.72 698.223 1402.39 794.835 1389.04 794.835 1379.86 767.775 1339.8 767.775 1330.19 794.835 1316.91 794.835ZM1571.82 696.931C1578.04 696.931 1583.73 697.936 1588.9 699.946 1594.07 701.955 1598.19 704.97 1601.28 708.99 1604.37 713.009 1605.91 718.01 1605.91 723.991L1592.99 723.991C1593.04 718.536 1591.03 714.409 1586.96 711.609 1582.89 708.81 1577.87 707.411 1571.89 707.411 1565.71 707.411 1560.92 708.643 1557.5 711.107 1554.07 713.571 1552.36 717.172 1552.36 721.91 1552.36 724.733 1553.11 727.089 1554.59 728.98 1556.07 730.87 1558.62 732.58 1562.23 734.112 1565.85 735.643 1570.88 737.246 1577.34 738.921 1584.81 740.931 1590.87 743.084 1595.54 745.381 1600.2 747.678 1603.64 750.62 1605.84 754.209 1608.04 757.798 1609.14 762.512 1609.14 768.349 1609.14 774.57 1607.58 779.726 1604.47 783.818 1601.36 787.909 1597.13 790.983 1591.77 793.041 1586.41 795.099 1580.36 796.127 1573.61 796.127 1566.72 796.127 1560.5 795.075 1554.95 792.969 1549.4 790.864 1544.98 787.562 1541.71 783.064 1538.43 778.566 1536.79 772.728 1536.79 765.55L1549.78 765.55C1549.78 770.67 1550.89 774.69 1553.12 777.609 1555.34 780.528 1558.3 782.585 1561.98 783.782 1565.67 784.978 1569.71 785.576 1574.11 785.576 1578.18 785.576 1581.9 784.966 1585.27 783.746 1588.65 782.526 1591.34 780.683 1593.35 778.219 1595.36 775.755 1596.36 772.584 1596.36 768.708 1596.36 765.359 1595.57 762.607 1593.99 760.454 1592.42 758.301 1589.8 756.422 1586.14 754.819 1582.47 753.216 1577.56 751.625 1571.39 750.046 1564.11 748.132 1558.13 746.039 1553.44 743.766 1548.75 741.493 1545.27 738.658 1543 735.26 1540.72 731.863 1539.59 727.556 1539.59 722.34 1539.59 716.837 1540.88 712.208 1543.46 708.451 1546.05 704.695 1549.76 701.836 1554.59 699.874 1559.42 697.912 1565.16 696.931 1571.82 696.931Z" stroke="#FFFFFF" stroke-width="3" stroke-linejoin="round" stroke-miterlimit="10" fill="#FFFFFF" fill-rule="evenodd"/><text fill="#000000" fill-opacity="0" font-family="Arial,Arial_MSFontService,sans-serif" font-size="99.1963" x="1316.91" y="783.728">AWS</text></g></svg>