<svg width="590" height="134" xmlns="http://www.w3.org/2000/svg" xmlns:xlink="http://www.w3.org/1999/xlink" xml:space="preserve" overflow="hidden"><g transform="translate(-407 -363)"><path d="M805.401 405.043 796.283 433.371 815.29 433.371 805.563 405.043ZM535.614 400.26C533.102 400.26 530.494 400.672 527.792 401.496 525.091 402.32 522.463 403.827 519.91 406.015 517.357 408.204 515.256 411.284 513.608 415.255 511.96 419.227 511.136 424.131 511.136 429.967 511.136 435.1 511.818 439.579 513.182 443.402 514.547 447.225 516.425 450.345 518.816 452.763 521.207 455.182 523.841 456.924 526.719 457.992 529.596 459.059 532.588 459.592 535.695 459.592 538.478 459.592 541.295 459.099 544.145 458.113 546.996 457.127 549.603 455.519 551.967 453.29 554.331 451.061 556.249 448.035 557.722 444.212 559.194 440.389 559.931 435.722 559.931 430.21 559.931 422.267 558.526 416.052 555.716 411.567 552.906 407.082 549.664 404.077 545.989 402.55 542.315 401.024 538.856 400.26 535.614 400.26ZM836.91 400.139 848.136 400.139 893.283 450.717 893.283 412.175C893.283 409.284 893.168 407.123 892.939 405.691 892.709 404.259 892.101 403.111 891.115 402.246 890.129 401.382 888.582 400.909 886.475 400.828L886.475 400.139 901.47 400.139 901.47 400.828C899.957 401.017 898.761 401.307 897.883 401.699 897.005 402.091 896.323 402.861 895.836 404.009 895.35 405.157 895.107 406.812 895.107 408.974L895.107 461.335 894.702 461.335 848.865 410.19 848.865 446.907C848.865 449.96 848.987 452.23 849.23 453.716 849.473 455.202 849.824 456.269 850.284 456.918 851.283 458.322 853.026 459.079 855.512 459.187L855.512 459.836 840.557 459.836 840.557 459.187C842.232 459.106 843.536 458.748 844.468 458.113 845.4 457.478 846.062 456.316 846.454 454.628 846.846 452.939 847.042 450.393 847.042 446.988L847.042 408.042 845.056 405.813C843.299 403.813 841.895 402.55 840.841 402.023 839.787 401.496 838.477 401.098 836.91 400.828ZM728.571 400.139 777.447 400.139 777.447 401.314 736.109 457.607 764.762 457.607C767.95 457.607 770.443 457.269 772.24 456.593 774.036 455.918 775.326 455.074 776.11 454.06 776.893 453.047 777.704 451.649 778.542 449.866L779.19 449.866 776.394 459.836 727.842 459.836 727.842 458.579 769.099 402.408 740.527 402.408C738.149 402.408 736.217 402.672 734.731 403.199 733.245 403.725 732.057 404.61 731.165 405.853 730.273 407.096 729.625 408.825 729.22 411.041L728.571 411.041ZM704.747 400.139 723.673 400.139 723.673 400.828C721.89 400.828 720.377 401.328 719.134 402.327 717.891 403.327 717.27 404.988 717.27 407.312L717.27 452.622C717.27 454.918 717.931 456.587 719.255 457.627 720.579 458.667 722.052 459.187 723.673 459.187L723.673 459.836 704.747 459.836 704.747 459.187C706.476 459.187 707.969 458.68 709.225 457.667 710.481 456.654 711.109 454.972 711.109 452.622L711.109 407.312C711.109 404.826 710.481 403.124 709.225 402.206 707.969 401.287 706.476 400.828 704.747 400.828ZM634.91 400.139 646.136 400.139 691.283 450.717 691.283 412.175C691.283 409.284 691.168 407.123 690.939 405.691 690.709 404.259 690.101 403.111 689.115 402.246 688.129 401.382 686.582 400.909 684.475 400.828L684.475 400.139 699.47 400.139 699.47 400.828C697.957 401.017 696.761 401.307 695.883 401.699 695.005 402.091 694.323 402.861 693.836 404.009 693.35 405.157 693.107 406.812 693.107 408.974L693.107 461.335 692.702 461.335 646.865 410.19 646.865 446.907C646.865 449.96 646.987 452.23 647.23 453.716 647.473 455.202 647.824 456.269 648.284 456.918 649.283 458.322 651.026 459.079 653.512 459.187L653.512 459.836 638.557 459.836 638.557 459.187C640.232 459.106 641.536 458.748 642.468 458.113 643.4 457.478 644.062 456.316 644.454 454.628 644.846 452.939 645.042 450.393 645.042 446.988L645.042 408.042 643.056 405.813C641.299 403.813 639.895 402.55 638.841 402.023 637.787 401.496 636.477 401.098 634.91 400.828ZM805.482 399.409 809.859 399.409 827.732 450.555C828.677 453.203 829.569 455.121 830.407 456.31 831.244 457.498 832.048 458.248 832.818 458.559 833.588 458.87 834.568 459.079 835.756 459.187L835.756 459.836 816.263 459.836 816.263 459.187C818.262 459.187 819.802 458.998 820.883 458.62 821.964 458.241 822.504 457.215 822.504 455.54 822.504 454.621 822.247 453.392 821.734 451.852 821.626 451.635 821.572 451.473 821.572 451.365L816.263 435.519 795.594 435.519 790.852 450.19C790.204 452.189 789.879 453.797 789.879 455.013 789.879 456.688 790.298 457.802 791.136 458.356 791.973 458.91 793.162 459.187 794.702 459.187L794.702 459.836 780.68 459.836 780.68 459.187C782.679 458.998 784.28 458.235 785.482 456.897 786.684 455.56 787.731 453.527 788.623 450.798ZM607.749 398.396C609.667 398.396 611.545 398.524 613.382 398.781 615.22 399.038 617.962 399.558 621.609 400.341 623.041 400.666 624.068 400.828 624.689 400.828 626.013 400.828 626.986 400.166 627.607 398.842L628.256 398.842 628.256 412.54 627.607 412.54C626.743 408.649 624.446 405.63 620.718 403.482 616.989 401.334 612.734 400.26 607.952 400.26 605.466 400.26 602.798 400.645 599.948 401.415 597.097 402.185 594.321 403.584 591.619 405.61 588.917 407.636 586.675 410.575 584.892 414.425 583.108 418.275 582.217 423.118 582.217 428.954 582.217 438.248 584.385 445.678 588.721 451.244 593.058 456.809 600.022 459.592 609.613 459.592 613.396 459.592 616.179 459.336 617.962 458.822 619.745 458.309 620.887 457.607 621.386 456.715 621.886 455.823 622.136 454.621 622.136 453.108L622.136 442.166C622.136 439.572 621.576 437.856 620.454 437.019 619.333 436.181 617.651 435.627 615.409 435.357L615.409 434.668 634.821 434.668 634.821 435.357C633.038 435.546 631.66 435.931 630.688 436.512 629.715 437.093 629.066 437.843 628.742 438.761 628.418 439.68 628.256 440.896 628.256 442.409L628.256 459.025C622.312 460.619 616.179 461.416 609.856 461.416 606.587 461.416 603.359 461.146 600.17 460.606 596.982 460.065 593.659 458.863 590.201 456.999 586.742 455.134 583.689 452.378 581.042 448.731 577.07 443.246 575.084 437.046 575.084 430.129 575.084 426.103 575.834 422.186 577.333 418.376 578.833 414.566 580.994 411.155 583.818 408.143 586.641 405.13 590.093 402.753 594.172 401.01 598.252 399.267 602.778 398.396 607.749 398.396ZM535.614 398.396C539.694 398.396 543.612 399.146 547.367 400.645 551.123 402.145 554.493 404.313 557.479 407.15 560.464 409.987 562.808 413.351 564.51 417.241 566.212 421.132 567.063 425.401 567.063 430.048 567.063 435.641 565.679 440.842 562.909 445.651 560.14 450.46 556.364 454.29 551.582 457.14 546.8 459.991 541.504 461.416 535.695 461.416 529.859 461.416 524.51 459.991 519.646 457.14 514.783 454.29 510.953 450.447 508.157 445.61 505.361 440.774 503.962 435.506 503.962 429.805 503.962 425.428 504.793 421.314 506.455 417.464 508.116 413.614 510.44 410.257 513.426 407.393 516.411 404.529 519.815 402.314 523.638 400.747 527.461 399.18 531.453 398.396 535.614 398.396ZM475.938 398.396C479.478 398.396 483.247 398.923 487.246 399.977L491.46 401.152C492.271 401.314 492.96 401.395 493.527 401.395 494.581 401.395 495.284 401.24 495.635 400.929 495.986 400.618 496.256 400.058 496.445 399.247L497.094 399.247 496.526 413.513 495.837 413.513C495.324 410.595 493.953 408.123 491.724 406.096 489.495 404.07 486.935 402.591 484.044 401.659 481.153 400.726 478.451 400.26 475.938 400.26 472.507 400.26 469.285 400.983 466.273 402.429 463.26 403.874 460.66 405.914 458.471 408.548 456.283 411.182 454.581 414.344 453.365 418.032 452.149 421.72 451.541 425.725 451.541 430.048 451.541 434.236 452.129 438.12 453.304 441.7 454.479 445.279 456.195 448.387 458.451 451.021 460.707 453.655 463.321 455.648 466.293 456.999 469.265 458.35 472.561 459.025 476.182 459.025 479.208 459.025 482.531 458.41 486.151 457.181 489.772 455.952 493.041 453.905 495.959 451.041L495.959 453.351C492.366 456.134 489.076 458.174 486.091 459.471 483.105 460.768 479.383 461.416 474.925 461.416 470.224 461.416 465.935 460.558 462.058 458.843 458.181 457.127 454.905 454.81 452.23 451.892 449.555 448.974 447.529 445.691 446.151 442.044 444.773 438.397 444.084 434.641 444.084 430.777 444.084 424.969 445.516 419.572 448.38 414.587 451.244 409.602 455.121 405.657 460.011 402.753 464.902 399.848 470.211 398.396 475.938 398.396ZM905.004 397.18 905.652 397.18C906.085 397.856 906.463 398.356 906.787 398.68 907.111 399.004 907.53 399.281 908.043 399.511 908.557 399.74 909.158 399.902 909.847 399.997 910.536 400.091 911.353 400.139 912.299 400.139L950.962 400.139C953.529 400.139 955.528 399.153 956.96 397.18L957.608 397.18 957.608 411.77 956.96 411.77C956.663 407.879 955.528 405.36 953.556 404.212 951.583 403.063 949.152 402.489 946.261 402.489L934.386 402.489 934.386 452.622C934.386 456.863 936.548 459.052 940.871 459.187L940.871 459.836 921.863 459.836 921.863 459.187C923.646 459.133 925.153 458.613 926.382 457.627 927.611 456.641 928.226 454.972 928.226 452.622L928.226 402.489 916.352 402.489C913.461 402.489 911.036 403.063 909.077 404.212 907.118 405.36 905.977 407.879 905.652 411.77L905.004 411.77Z" stroke="#FFFFFF" stroke-width="3" stroke-linejoin="round" stroke-miterlimit="10" fill="#FFFFFF" fill-rule="evenodd"/><text fill="#000000" fill-opacity="0" font-family="Arial,Arial_MSFontService,sans-serif" font-size="64.2358" x="444.084" y="453.387">Cognizant</text></g></svg>