<svg width="521" height="189" xmlns="http://www.w3.org/2000/svg" xmlns:xlink="http://www.w3.org/1999/xlink" xml:space="preserve" overflow="hidden"><g transform="translate(-2660 -1383)"><path d="M3030.71 1467.2C3025.83 1467.2 3022.07 1469.15 3019.43 1473.05 3016.78 1476.94 3015.46 1482.49 3015.46 1489.7 3015.46 1496.87 3016.78 1502.41 3019.43 1506.33 3022.07 1510.24 3025.83 1512.2 3030.71 1512.2 3035.58 1512.2 3039.34 1510.24 3041.99 1506.33 3044.64 1502.41 3045.96 1496.87 3045.96 1489.7 3045.96 1482.49 3044.64 1476.94 3041.99 1473.05 3039.34 1469.15 3035.58 1467.2 3030.71 1467.2ZM2732.62 1466.58C2727.42 1466.58 2723.47 1468.35 2720.78 1471.89 2718.09 1475.43 2716.75 1480.62 2716.75 1487.45L2716.75 1491.95C2716.75 1498.79 2718.09 1503.97 2720.78 1507.51 2723.47 1511.06 2727.42 1512.83 2732.62 1512.83 2737.96 1512.83 2742 1510.93 2744.75 1507.14 2747.5 1503.35 2748.87 1497.74 2748.87 1490.33 2748.87 1482.49 2747.5 1476.58 2744.75 1472.58 2742 1468.58 2737.96 1466.58 2732.62 1466.58ZM2771.49 1456.58 2785.24 1456.58 2806.86 1512.83 2807.78 1512.83 2823.99 1456.58 2837.74 1456.58 2818.61 1516.95C2816.11 1524.87 2813.31 1531.24 2810.21 1536.08 2807.1 1540.91 2803.44 1544.54 2799.21 1546.95 2794.98 1549.37 2789.91 1550.91 2783.99 1551.58L2772.74 1552.83 2772.11 1540.95 2782.49 1539.7C2786.86 1539.16 2790.6 1537.97 2793.71 1536.14 2796.81 1534.31 2799.47 1531.59 2801.68 1527.98 2802.23 1527.08 2802.76 1526.11 2803.28 1525.07L2804.3 1522.83 2797.86 1522.83ZM3110.76 1455.33C3117.76 1455.33 3123.18 1457.45 3127.01 1461.7 3130.84 1465.95 3132.76 1471.95 3132.76 1479.7L3132.76 1522.83 3119.51 1522.83 3119.51 1479.7C3119.51 1475.7 3118.47 1472.62 3116.39 1470.45 3114.3 1468.29 3111.39 1467.2 3107.64 1467.2 3097.22 1467.2 3092.01 1473.33 3092.01 1485.58L3092.01 1522.83 3078.76 1522.83 3078.76 1456.58 3090.76 1456.58 3091.83 1468.58 3093.26 1468.58C3093.64 1464.12 3095.26 1460.8 3098.14 1458.61 3101.01 1456.42 3105.22 1455.33 3110.76 1455.33ZM3030.71 1455.33C3039.92 1455.33 3047.05 1458.32 3052.11 1464.3 3057.18 1470.27 3059.71 1478.74 3059.71 1489.7 3059.71 1500.62 3057.18 1509.08 3052.11 1515.08 3047.05 1521.08 3039.92 1524.08 3030.71 1524.08 3021.54 1524.08 3014.42 1521.08 3009.33 1515.08 3004.25 1509.08 3001.71 1500.62 3001.71 1489.7 3001.71 1478.74 3004.25 1470.27 3009.33 1464.3 3014.42 1458.32 3021.54 1455.33 3030.71 1455.33ZM2735.56 1455.33C2744.27 1455.33 2750.85 1458.29 2755.31 1464.2 2759.77 1470.12 2762 1478.83 2762 1490.33 2762 1501.41 2759.77 1509.81 2755.31 1515.51 2750.85 1521.22 2744.27 1524.08 2735.56 1524.08 2730.48 1524.08 2726.39 1522.91 2723.28 1520.58 2720.18 1518.24 2718.42 1514.99 2718 1510.83L2716.75 1510.83 2716.75 1551.58 2703.5 1551.58 2703.5 1456.58 2715.5 1456.58 2716.57 1468.58 2717.37 1468.58C2717.96 1464.41 2719.84 1461.16 2723.03 1458.83 2726.22 1456.49 2730.4 1455.33 2735.56 1455.33ZM2864.1 1436.58 2877.35 1436.58 2877.35 1456.58 2907.48 1456.58 2907.48 1468.2 2877.35 1468.2 2877.35 1486.58 2877.35 1491.58 2877.35 1497.2C2877.35 1502.45 2878.64 1506.26 2881.2 1508.64 2883.76 1511.01 2887.98 1512.2 2893.85 1512.2 2895.94 1512.2 2898.15 1512.09 2900.48 1511.86 2902.81 1511.63 2905.48 1511.33 2908.48 1510.95L2909.98 1522.58C2907.06 1523.08 2904.22 1523.45 2901.45 1523.7 2898.68 1523.95 2895.73 1524.08 2892.6 1524.08 2882.56 1524.08 2875.3 1521.99 2870.82 1517.83 2866.34 1513.66 2864.1 1506.99 2864.1 1497.83L2864.1 1491.58 2864.1 1486.58 2864.1 1468.2 2847.48 1468.2 2847.48 1456.58 2864.1 1456.58ZM2928.66 1429.08 2941.91 1429.08 2941.91 1468.58 2943.16 1468.58C2943.53 1464.12 2945.16 1460.8 2948.03 1458.61 2950.91 1456.42 2955.11 1455.33 2960.66 1455.33 2967.66 1455.33 2973.07 1457.45 2976.91 1461.7 2980.74 1465.95 2982.66 1471.95 2982.66 1479.7L2982.66 1522.83 2969.41 1522.83 2969.41 1479.7C2969.41 1475.49 2968.36 1472.25 2966.28 1469.98 2964.2 1467.71 2961.28 1466.58 2957.53 1466.58 2947.11 1466.58 2941.91 1472.91 2941.91 1485.58L2941.91 1522.83 2928.66 1522.83Z" stroke="#FFFFFF" stroke-width="3" stroke-linejoin="round" stroke-miterlimit="10" fill="#FFFFFF" fill-rule="evenodd"/><text fill="#000000" fill-opacity="0" font-family="Arial,Arial_MSFontService,sans-serif" font-size="123.75" x="2703.5" y="1537.36">python</text></g></svg>