<svg width="837" height="167" xmlns="http://www.w3.org/2000/svg" xmlns:xlink="http://www.w3.org/1999/xlink" xml:space="preserve" overflow="hidden"><g transform="translate(-1527 -753)"><path d="M2000.22 809.155 1987.86 843.476 2012.46 843.476ZM2127.79 807.651 2127.79 863.725 2140.3 863.725C2146.64 863.725 2151.87 862.713 2155.99 860.69 2160.1 858.667 2163.17 855.57 2165.2 851.398 2167.22 847.227 2168.23 841.972 2168.23 835.634 2168.23 829.332 2167.2 824.113 2165.14 819.977 2163.08 815.842 2159.99 812.753 2155.85 810.712 2151.72 808.671 2146.53 807.651 2140.3 807.651ZM2051.79 807.651 2051.79 863.725 2064.3 863.725C2070.64 863.725 2075.87 862.713 2079.99 860.69 2084.1 858.667 2087.17 855.57 2089.2 851.398 2091.22 847.227 2092.23 841.972 2092.23 835.634 2092.23 829.332 2091.2 824.113 2089.14 819.977 2087.08 815.842 2083.99 812.753 2079.85 810.712 2075.72 808.671 2070.53 807.651 2064.3 807.651ZM2255.12 799.54 2265 799.54 2304.64 857.065 2304.64 799.54 2313.83 799.54 2313.83 871.835 2303.94 871.835 2264.25 814.203 2264.25 871.835 2255.12 871.835ZM2193.12 799.54 2239.26 799.54 2239.26 807.597 2202.79 807.597 2202.79 830.639 2236.36 830.639 2236.36 838.588 2202.79 838.588 2202.79 863.779 2239.26 863.779 2239.26 871.835 2193.12 871.835ZM2118.12 799.54 2142.45 799.54C2150.01 799.54 2156.45 800.964 2161.79 803.81 2167.12 806.657 2171.19 810.784 2173.98 816.191 2176.77 821.598 2178.17 828.097 2178.17 835.688 2178.17 843.315 2176.76 849.832 2173.95 855.239 2171.14 860.646 2167.07 864.763 2161.73 867.592 2156.4 870.421 2149.97 871.835 2142.45 871.835L2118.12 871.835ZM2042.12 799.54 2066.45 799.54C2074.01 799.54 2080.45 800.964 2085.79 803.81 2091.12 806.657 2095.19 810.784 2097.98 816.191 2100.77 821.598 2102.17 828.097 2102.17 835.688 2102.17 843.315 2100.76 849.832 2097.95 855.239 2095.14 860.646 2091.07 864.763 2085.73 867.592 2080.4 870.421 2073.97 871.835 2066.45 871.835L2042.12 871.835ZM1995.17 799.54 2005.37 799.54 2032.07 871.835 2022.08 871.835 2015.2 851.586 1985.23 851.586 1978.03 871.835 1968.1 871.835ZM1890.12 799.54 1900.7 799.54 1924.45 838.857 1947.75 799.54 1958.06 799.54 1958.06 871.835 1948.56 871.835 1948.56 813.23 1927.34 849.116 1921 849.116 1899.41 813.145 1899.41 871.835 1890.12 871.835ZM1807.12 799.54 1853.26 799.54 1853.26 807.597 1816.79 807.597 1816.79 830.639 1850.36 830.639 1850.36 838.588 1816.79 838.588 1816.79 863.779 1853.26 863.779 1853.26 871.835 1807.12 871.835ZM1734.1 799.54 1744.36 799.54 1765.84 861.63 1787.43 799.54 1797.64 799.54 1771.37 871.835 1760.09 871.835ZM1682.12 799.54 1728.26 799.54 1728.26 807.597 1691.79 807.597 1691.79 830.639 1725.36 830.639 1725.36 838.588 1691.79 838.588 1691.79 863.779 1728.26 863.779 1728.26 871.835 1682.12 871.835ZM1620.63 799.54 1671.34 799.54 1671.34 807.651 1650.82 807.651 1650.82 871.835 1641.2 871.835 1641.2 807.651 1620.63 807.651ZM1589.96 798.574C1594.61 798.574 1598.88 799.326 1602.74 800.829 1606.61 802.333 1609.7 804.589 1612.01 807.597 1614.32 810.605 1615.47 814.347 1615.47 818.823L1605.8 818.823C1605.84 814.741 1604.34 811.652 1601.29 809.557 1598.25 807.463 1594.49 806.415 1590.01 806.415 1585.39 806.415 1581.8 807.337 1579.24 809.182 1576.68 811.026 1575.4 813.72 1575.4 817.265 1575.4 819.378 1575.96 821.141 1577.07 822.556 1578.18 823.97 1580.09 825.25 1582.79 826.396 1585.49 827.542 1589.26 828.741 1594.1 829.995 1599.68 831.498 1604.22 833.11 1607.71 834.828 1611.2 836.547 1613.77 838.749 1615.42 841.435 1617.07 844.12 1617.89 847.648 1617.89 852.016 1617.89 856.671 1616.73 860.529 1614.4 863.591 1612.07 866.652 1608.9 868.953 1604.89 870.493 1600.88 872.032 1596.35 872.802 1591.3 872.802 1586.15 872.802 1581.49 872.014 1577.34 870.439 1573.18 868.863 1569.88 866.393 1567.43 863.027 1564.98 859.661 1563.75 855.292 1563.75 849.921L1573.47 849.921C1573.47 853.753 1574.3 856.76 1575.97 858.945 1577.63 861.129 1579.84 862.669 1582.6 863.564 1585.36 864.459 1588.38 864.907 1591.68 864.907 1594.72 864.907 1597.51 864.45 1600.03 863.537 1602.55 862.624 1604.57 861.245 1606.07 859.401 1607.58 857.557 1608.33 855.185 1608.33 852.285 1608.33 849.778 1607.74 847.719 1606.56 846.108 1605.37 844.496 1603.41 843.091 1600.68 841.891 1597.94 840.692 1594.26 839.501 1589.64 838.32 1584.19 836.887 1579.72 835.321 1576.21 833.62 1572.7 831.919 1570.1 829.798 1568.39 827.255 1566.69 824.713 1565.84 821.49 1565.84 817.587 1565.84 813.469 1566.81 810.005 1568.74 807.194 1570.68 804.383 1573.45 802.244 1577.07 800.776 1580.69 799.308 1584.98 798.574 1589.96 798.574Z" stroke="#FFFFFF" stroke-width="3" stroke-linejoin="round" stroke-miterlimit="10" fill="#FFFFFF" fill-rule="evenodd"/><text fill="#000000" fill-opacity="0" font-family="Arial,Arial_MSFontService,sans-serif" font-size="74.2285" x="1563.75" y="863.524">STEVE MADDEN</text></g></svg>