<svg width="1093" height="211" xmlns="http://www.w3.org/2000/svg" xmlns:xlink="http://www.w3.org/1999/xlink" xml:space="preserve" overflow="hidden"><g transform="translate(-1527 -753)"><path d="M2147.16 821.071 2130.66 866.937 2163.53 866.937ZM2316.22 819.061 2316.22 893.997 2332.94 893.997C2341.41 893.997 2348.4 892.645 2353.9 889.942 2359.41 887.238 2363.51 883.099 2366.21 877.524 2368.92 871.949 2370.27 864.927 2370.27 856.457 2370.27 848.036 2368.89 841.061 2366.14 835.534 2363.39 830.007 2359.25 825.88 2353.72 823.153 2348.2 820.425 2341.27 819.061 2332.94 819.061ZM2215.22 819.061 2215.22 893.997 2231.94 893.997C2240.41 893.997 2247.4 892.645 2252.9 889.942 2258.41 887.238 2262.51 883.099 2265.21 877.524 2267.92 871.949 2269.27 864.927 2269.27 856.457 2269.27 848.036 2267.89 841.061 2265.14 835.534 2262.39 830.007 2258.25 825.88 2252.72 823.153 2247.2 820.425 2240.27 819.061 2231.94 819.061ZM2485.3 808.223 2498.51 808.223 2551.48 885.097 2551.48 808.223 2563.75 808.223 2563.75 904.835 2550.55 904.835 2497.5 827.818 2497.5 904.835 2485.3 904.835ZM2404.3 808.223 2465.96 808.223 2465.96 818.99 2417.22 818.99 2417.22 849.782 2462.08 849.782 2462.08 860.405 2417.22 860.405 2417.22 894.069 2465.96 894.069 2465.96 904.835 2404.3 904.835ZM2303.3 808.223 2335.81 808.223C2345.91 808.223 2354.52 810.125 2361.65 813.929 2368.78 817.734 2374.22 823.248 2377.95 830.474 2381.68 837.7 2383.55 846.385 2383.55 856.529 2383.55 866.722 2381.67 875.431 2377.91 882.656 2374.16 889.882 2368.71 895.385 2361.58 899.165 2354.45 902.945 2345.86 904.835 2335.81 904.835L2303.3 904.835ZM2202.3 808.223 2234.81 808.223C2244.91 808.223 2253.52 810.125 2260.65 813.929 2267.78 817.734 2273.22 823.248 2276.95 830.474 2280.68 837.7 2282.55 846.385 2282.55 856.529 2282.55 866.722 2280.67 875.431 2276.91 882.656 2273.16 889.882 2267.71 895.385 2260.58 899.165 2253.45 902.945 2244.86 904.835 2234.81 904.835L2202.3 904.835ZM2140.42 808.223 2154.05 808.223 2189.73 904.835 2176.38 904.835 2167.19 877.775 2127.14 877.775 2117.52 904.835 2104.24 904.835ZM2000.3 808.223 2014.44 808.223 2046.18 860.764 2077.32 808.223 2091.1 808.223 2091.1 904.835 2078.39 904.835 2078.39 826.517 2050.04 874.474 2041.57 874.474 2012.72 826.403 2012.72 904.835 2000.3 904.835ZM1889.3 808.223 1950.96 808.223 1950.96 818.99 1902.22 818.99 1902.22 849.782 1947.08 849.782 1947.08 860.405 1902.22 860.405 1902.22 894.069 1950.96 894.069 1950.96 904.835 1889.3 904.835ZM1791.24 808.223 1804.95 808.223 1833.66 891.198 1862.52 808.223 1876.15 808.223 1841.05 904.835 1825.98 904.835ZM1723.3 808.223 1784.96 808.223 1784.96 818.99 1736.22 818.99 1736.22 849.782 1781.08 849.782 1781.08 860.405 1736.22 860.405 1736.22 894.069 1784.96 894.069 1784.96 904.835 1723.3 904.835ZM1640.96 808.223 1708.72 808.223 1708.72 819.061 1681.3 819.061 1681.3 904.835 1668.45 904.835 1668.45 819.061 1640.96 819.061ZM1600.15 806.931C1606.37 806.931 1612.06 807.936 1617.23 809.946 1622.4 811.955 1626.53 814.97 1629.61 818.99 1632.7 823.009 1634.24 828.01 1634.24 833.991L1621.32 833.991C1621.37 828.536 1619.36 824.409 1615.29 821.609 1611.23 818.81 1606.2 817.411 1600.22 817.411 1594.05 817.411 1589.25 818.643 1585.83 821.107 1582.41 823.571 1580.7 827.172 1580.7 831.91 1580.7 834.733 1581.44 837.089 1582.92 838.98 1584.41 840.87 1586.95 842.58 1590.57 844.112 1594.18 845.643 1599.22 847.246 1605.68 848.921 1613.14 850.931 1619.21 853.084 1623.87 855.381 1628.54 857.678 1631.97 860.62 1634.17 864.209 1636.37 867.798 1637.47 872.512 1637.47 878.349 1637.47 884.57 1635.92 889.726 1632.81 893.818 1629.7 897.909 1625.46 900.983 1620.1 903.041 1614.74 905.099 1608.69 906.127 1601.94 906.127 1595.05 906.127 1588.83 905.075 1583.28 902.969 1577.73 900.864 1573.32 897.562 1570.04 893.064 1566.76 888.566 1565.12 882.728 1565.12 875.55L1578.11 875.55C1578.11 880.67 1579.23 884.69 1581.45 887.609 1583.68 890.528 1586.63 892.585 1590.32 893.782 1594 894.978 1598.04 895.576 1602.45 895.576 1606.51 895.576 1610.23 894.966 1613.61 893.746 1616.98 892.526 1619.67 890.683 1621.68 888.219 1623.69 885.755 1624.7 882.584 1624.7 878.708 1624.7 875.359 1623.91 872.607 1622.33 870.454 1620.75 868.301 1618.13 866.422 1614.47 864.819 1610.81 863.216 1605.89 861.625 1599.72 860.046 1592.45 858.132 1586.46 856.039 1581.77 853.766 1577.08 851.493 1573.6 848.658 1571.33 845.26 1569.06 841.863 1567.92 837.556 1567.92 832.34 1567.92 826.837 1569.21 822.208 1571.8 818.451 1574.38 814.695 1578.09 811.836 1582.92 809.874 1587.76 807.912 1593.5 806.931 1600.15 806.931Z" stroke="#FFFFFF" stroke-width="3" stroke-linejoin="round" stroke-miterlimit="10" fill="#FFFFFF" fill-rule="evenodd"/><text fill="#000000" fill-opacity="0" font-family="Arial,Arial_MSFontService,sans-serif" font-size="99.1963" x="1565.12" y="893.728">STEVE MADDEN</text></g></svg>