<svg width="644" height="134" xmlns="http://www.w3.org/2000/svg" xmlns:xlink="http://www.w3.org/1999/xlink" xml:space="preserve" overflow="hidden"><g transform="translate(-1527 -753)"><path d="M1889.23 798.529 1879.91 824.426 1898.47 824.426ZM1985.09 797.395 1985.09 839.705 1994.54 839.705C1999.32 839.705 2003.26 838.942 2006.37 837.415 2009.48 835.889 2011.8 833.552 2013.32 830.404 2014.85 827.257 2015.61 823.292 2015.61 818.509 2015.61 813.754 2014.83 809.816 2013.28 806.696 2011.73 803.575 2009.39 801.245 2006.27 799.705 2003.15 798.165 1999.24 797.395 1994.54 797.395ZM1928.09 797.395 1928.09 839.705 1937.54 839.705C1942.32 839.705 1946.26 838.942 1949.37 837.415 1952.48 835.889 1954.8 833.552 1956.32 830.404 1957.85 827.257 1958.61 823.292 1958.61 818.509 1958.61 813.754 1957.83 809.816 1956.28 806.696 1954.73 803.575 1952.39 801.245 1949.27 799.705 1946.15 798.165 1942.24 797.395 1937.54 797.395ZM2079.8 791.275 2087.26 791.275 2117.17 834.68 2117.17 791.275 2124.1 791.275 2124.1 845.825 2116.64 845.825 2086.69 802.339 2086.69 845.825 2079.8 845.825ZM2034.8 791.275 2069.61 791.275 2069.61 797.354 2042.09 797.354 2042.09 814.74 2067.42 814.74 2067.42 820.738 2042.09 820.738 2042.09 839.746 2069.61 839.746 2069.61 845.825 2034.8 845.825ZM1977.8 791.275 1996.16 791.275C2001.86 791.275 2006.72 792.349 2010.75 794.497 2014.77 796.645 2017.84 799.759 2019.95 803.839 2022.06 807.918 2023.11 812.822 2023.11 818.55 2023.11 824.305 2022.05 829.222 2019.93 833.302 2017.81 837.382 2014.73 840.489 2010.71 842.623 2006.68 844.758 2001.83 845.825 1996.16 845.825L1977.8 845.825ZM1920.8 791.275 1939.16 791.275C1944.86 791.275 1949.72 792.349 1953.75 794.497 1957.77 796.645 1960.84 799.759 1962.95 803.839 1965.06 807.918 1966.11 812.822 1966.11 818.55 1966.11 824.305 1965.05 829.222 1962.93 833.302 1960.81 837.382 1957.73 840.489 1953.71 842.623 1949.68 844.758 1944.83 845.825 1939.16 845.825L1920.8 845.825ZM1885.42 791.275 1893.12 791.275 1913.26 845.825 1905.72 845.825 1900.53 830.546 1877.92 830.546 1872.49 845.825 1864.99 845.825ZM1806.8 791.275 1814.78 791.275 1832.7 820.941 1850.29 791.275 1858.07 791.275 1858.07 845.825 1850.89 845.825 1850.89 801.604 1834.89 828.682 1830.1 828.682 1813.81 801.54 1813.81 845.825 1806.8 845.825ZM1744.8 791.275 1779.61 791.275 1779.61 797.354 1752.09 797.354 1752.09 814.74 1777.42 814.74 1777.42 820.738 1752.09 820.738 1752.09 839.746 1779.61 839.746 1779.61 845.825 1744.8 845.825ZM1689.99 791.275 1697.73 791.275 1713.94 838.125 1730.23 791.275 1737.93 791.275 1718.12 845.825 1709.61 845.825ZM1650.8 791.275 1685.61 791.275 1685.61 797.354 1658.09 797.354 1658.09 814.74 1683.42 814.74 1683.42 820.738 1658.09 820.738 1658.09 839.746 1685.61 839.746 1685.61 845.825 1650.8 845.825ZM1605.4 791.275 1643.65 791.275 1643.65 797.395 1628.17 797.395 1628.17 845.825 1620.92 845.825 1620.92 797.395 1605.4 797.395ZM1582.52 790.546C1586.04 790.546 1589.25 791.113 1592.17 792.248 1595.09 793.383 1597.42 795.085 1599.16 797.354 1600.9 799.624 1601.77 802.447 1601.77 805.824L1594.48 805.824C1594.51 802.744 1593.37 800.414 1591.08 798.833 1588.78 797.253 1585.94 796.463 1582.56 796.463 1579.08 796.463 1576.37 797.158 1574.44 798.55 1572.51 799.941 1571.54 801.974 1571.54 804.649 1571.54 806.243 1571.96 807.574 1572.8 808.641 1573.64 809.708 1575.07 810.674 1577.11 811.539 1579.15 812.403 1582 813.308 1585.64 814.254 1589.86 815.389 1593.28 816.605 1595.92 817.902 1598.55 819.198 1600.49 820.86 1601.73 822.886 1602.98 824.913 1603.6 827.574 1603.6 830.87 1603.6 834.383 1602.72 837.294 1600.96 839.604 1599.21 841.914 1596.82 843.65 1593.79 844.812 1590.76 845.974 1587.35 846.554 1583.54 846.554 1579.65 846.554 1576.13 845.96 1573 844.771 1569.87 843.582 1567.37 841.718 1565.52 839.178 1563.67 836.639 1562.75 833.342 1562.75 829.29L1570.08 829.29C1570.08 832.181 1570.71 834.45 1571.97 836.098 1573.22 837.746 1574.89 838.908 1576.97 839.584 1579.05 840.259 1581.34 840.597 1583.82 840.597 1586.12 840.597 1588.22 840.252 1590.12 839.563 1592.03 838.874 1593.55 837.834 1594.68 836.443 1595.82 835.051 1596.38 833.261 1596.38 831.073 1596.38 829.182 1595.94 827.628 1595.05 826.412 1594.16 825.196 1592.68 824.136 1590.61 823.231 1588.54 822.326 1585.77 821.427 1582.28 820.536 1578.17 819.455 1574.8 818.273 1572.15 816.99 1569.5 815.706 1567.54 814.105 1566.25 812.187 1564.97 810.269 1564.33 807.837 1564.33 804.892 1564.33 801.785 1565.06 799.171 1566.52 797.05 1567.97 794.929 1570.07 793.315 1572.8 792.207 1575.53 791.099 1578.77 790.546 1582.52 790.546Z" stroke="#FFFFFF" stroke-width="3" stroke-linejoin="round" stroke-miterlimit="10" fill="#FFFFFF" fill-rule="evenodd"/><text fill="#000000" fill-opacity="0" font-family="Arial,Arial_MSFontService,sans-serif" font-size="56.0088" x="1562.75" y="839.553">STEVE MADDEN</text></g></svg>